<svg width="36" height="36" viewBox="0 0 36 36" fill="none" xmlns="http://www.w3.org/2000/svg">
<path d="M24.0158 13.0375C24.0158 13.2513 23.9524 13.4603 23.8337 13.638C23.7149 13.8158 23.5461 13.9543 23.3486 14.0361C23.1511 14.1179 22.9338 14.1393 22.7241 14.0976C22.5144 14.0559 22.3218 13.953 22.1707 13.8018C22.0195 13.6507 21.9166 13.4581 21.8749 13.2484C21.8332 13.0387 21.8546 12.8214 21.9364 12.6239C22.0182 12.4264 22.1567 12.2576 22.3345 12.1388C22.5122 12.0201 22.7212 11.9567 22.935 11.9567C23.2216 11.9567 23.4965 12.0705 23.6992 12.2732C23.9019 12.4759 24.0158 12.7509 24.0158 13.0375ZM22.6515 17.8702C22.6515 18.7662 22.3858 19.642 21.8881 20.3869C21.3903 21.1319 20.6828 21.7125 19.8551 22.0554C19.0273 22.3983 18.1165 22.488 17.2377 22.3132C16.359 22.1384 15.5518 21.7069 14.9183 21.0734C14.2848 20.4399 13.8533 19.6327 13.6785 18.754C13.5037 17.8752 13.5934 16.9644 13.9363 16.1366C14.2792 15.3089 14.8598 14.6014 15.6048 14.1036C16.3497 13.6059 17.2256 13.3402 18.1215 13.3402C19.3226 13.3414 20.474 13.8191 21.3233 14.6684C22.1726 15.5177 22.6503 16.6692 22.6515 17.8702ZM21.023 17.8702C21.023 17.3001 20.854 16.7429 20.5373 16.2689C20.2206 15.7949 19.7704 15.4255 19.2437 15.2073C18.7171 14.9891 18.1375 14.9321 17.5784 15.0433C17.0193 15.1545 16.5057 15.429 16.1026 15.8321C15.6995 16.2352 15.425 16.7488 15.3138 17.3079C15.2026 17.867 15.2597 18.4465 15.4778 18.9732C15.696 19.4999 16.0654 19.95 16.5394 20.2667C17.0134 20.5835 17.5707 20.7525 18.1407 20.7525C18.5192 20.7525 18.894 20.678 19.2437 20.5331C19.5934 20.3883 19.9112 20.1759 20.1788 19.9083C20.4465 19.6407 20.6588 19.3229 20.8036 18.9732C20.9485 18.6235 21.023 18.2487 21.023 17.8702ZM27.268 14.2289C27.268 12.7637 26.686 11.3586 25.65 10.3225C24.6139 9.2865 23.2088 8.70447 21.7436 8.70447H14.2256C12.7604 8.70447 11.3553 9.2865 10.3192 10.3225C9.28321 11.3586 8.70117 12.7637 8.70117 14.2289V21.7709C8.70117 22.4964 8.84407 23.2148 9.12169 23.885C9.39932 24.5553 9.80625 25.1643 10.3192 25.6773C11.3553 26.7133 12.7604 27.2953 14.2256 27.2953H21.7676C22.4931 27.2953 23.2115 27.1524 23.8817 26.8748C24.552 26.5972 25.161 26.1903 25.674 25.6773C26.187 25.1643 26.5939 24.5553 26.8715 23.885C27.1491 23.2148 27.292 22.4964 27.292 21.7709L27.268 14.2289ZM25.457 21.6845C25.4576 22.183 25.3599 22.6768 25.1694 23.1375C24.9789 23.5982 24.6994 24.0168 24.3468 24.3694C23.9943 24.7219 23.5757 25.0014 23.115 25.1919C22.6543 25.3824 22.1605 25.4801 21.6619 25.4795H14.3121C13.8135 25.4801 13.3197 25.3824 12.859 25.1919C12.3983 25.0014 11.9797 24.7219 11.6272 24.3694C11.2746 24.0168 10.9951 23.5982 10.8046 23.1375C10.6141 22.6768 10.5164 22.183 10.517 21.6845V14.3154C10.5164 13.8168 10.6141 13.323 10.8046 12.8623C10.9951 12.4016 11.2746 11.983 11.6272 11.6304C11.9797 11.2779 12.3983 10.9984 12.859 10.8079C13.3197 10.6174 13.8135 10.5197 14.3121 10.5203H21.6812C22.6847 10.5241 23.6458 10.9258 24.3536 11.6372C25.0615 12.3487 25.4583 13.3118 25.457 14.3154V21.6845Z" fill="#385E83"/>
<path d="M18 0C14.4399 0 10.9598 1.05568 7.99974 3.03355C5.03966 5.01141 2.73255 7.82263 1.37018 11.1117C0.00779909 14.4008 -0.348661 18.02 0.345873 21.5116C1.04041 25.0033 2.75474 28.2106 5.27208 30.7279C7.78943 33.2453 10.9967 34.9596 14.4884 35.6541C17.98 36.3487 21.5992 35.9922 24.8883 34.6298C28.1774 33.2674 30.9886 30.9603 32.9665 28.0003C34.9443 25.0402 36 21.5601 36 18C35.9949 13.2277 34.0969 8.65225 30.7223 5.27769C27.3478 1.90314 22.7723 0.00508643 18 0ZM18 33.6893C14.8969 33.6893 11.8636 32.7692 9.28347 31.0452C6.70337 29.3212 4.69243 26.8709 3.50494 24.004C2.31745 21.1372 2.00675 17.9826 2.61212 14.9392C3.2175 11.8957 4.71177 9.10015 6.90596 6.90595C9.10015 4.71176 11.8957 3.21749 14.9392 2.61211C17.9826 2.00674 21.1372 2.31744 24.0041 3.50493C26.8709 4.69242 29.3213 6.70336 31.0452 9.28346C32.7692 11.8636 33.6894 14.8969 33.6894 18C33.6843 22.1595 32.0297 26.1472 29.0884 29.0884C26.1472 32.0296 22.1595 33.6843 18 33.6893Z" fill="#385E83"/>
</svg>
