<svg width="36" height="36" viewBox="0 0 36 36" fill="none" xmlns="http://www.w3.org/2000/svg">
<path d="M18 0C14.4399 0 10.9598 1.05568 7.99974 3.03355C5.03966 5.01141 2.73255 7.82263 1.37018 11.1117C0.00779909 14.4008 -0.348661 18.02 0.345873 21.5116C1.04041 25.0033 2.75474 28.2106 5.27209 30.7279C7.78943 33.2453 10.9967 34.9596 14.4884 35.6541C17.98 36.3487 21.5992 35.9922 24.8883 34.6298C28.1774 33.2675 30.9886 30.9604 32.9665 28.0003C34.9443 25.0402 36 21.5601 36 18C35.9949 13.2277 34.0969 8.65225 30.7223 5.2777C27.3478 1.90314 22.7723 0.00508643 18 0ZM18 33.6894C14.8969 33.6894 11.8636 32.7692 9.28347 31.0452C6.70337 29.3213 4.69243 26.8709 3.50494 24.0041C2.31745 21.1372 2.00675 17.9826 2.61212 14.9392C3.2175 11.8957 4.71177 9.10015 6.90596 6.90595C9.10016 4.71176 11.8957 3.21749 14.9392 2.61212C17.9826 2.00674 21.1372 2.31744 24.0041 3.50493C26.8709 4.69242 29.3213 6.70336 31.0452 9.28346C32.7692 11.8636 33.6894 14.8969 33.6894 18C33.6843 22.1595 32.0297 26.1472 29.0884 29.0884C26.1472 32.0297 22.1595 33.6843 18 33.6894Z" fill="#385E83"/>
<path d="M24.0771 15.454C24.195 14.9826 24.2547 14.4987 24.2549 14.0128C24.2558 13.1435 24.0725 12.2838 23.7169 11.4906C23.3612 10.6973 22.8415 9.98849 22.1918 9.41084C21.5422 8.83319 20.7774 8.39985 19.948 8.13942C19.1186 7.87899 18.2435 7.79739 17.3802 7.89999C16.517 8.00259 15.6853 8.28708 14.94 8.73467C14.1948 9.18226 13.5529 9.78278 13.0568 10.4966C12.5607 11.2105 12.2215 12.0214 12.0618 12.8759C11.902 13.7304 11.9252 14.6091 12.13 15.454C12.2474 16.2807 12.4735 17.0884 12.8025 17.8559C13.4078 19.1241 15.949 23.3131 17.126 25.2202C15.5503 25.4219 14.8153 26.0993 14.8153 26.7382C14.8153 27.502 15.8481 28.3187 18.1156 28.3187C20.383 28.3187 21.4158 27.502 21.4158 26.7382C21.4158 26.0993 20.6808 25.4219 19.1051 25.2202C20.2725 23.2986 22.8137 19.1241 23.4286 17.8559C23.7514 17.0879 23.9695 16.28 24.0771 15.454ZM20.455 26.7286C20.3878 26.9015 19.5951 27.3819 18.1059 27.3819C16.6168 27.3819 15.8049 26.9015 15.7569 26.7574C15.8001 26.5989 16.4438 26.2098 17.6784 26.1329L17.712 26.181C17.7556 26.2484 17.8153 26.3038 17.8858 26.3422C17.9563 26.3806 18.0353 26.4007 18.1156 26.4007C18.1958 26.4007 18.2748 26.3806 18.3453 26.3422C18.4158 26.3038 18.4755 26.2484 18.5191 26.181C18.5301 26.1659 18.5398 26.1498 18.5479 26.1329C19.7489 26.1906 20.3974 26.5701 20.455 26.7286ZM13.6624 17.438C13.3682 16.7489 13.1679 16.0234 13.0667 15.281C13.0667 15.281 13.0667 15.281 13.0667 15.2426C12.8921 14.5289 12.8708 13.7864 13.0042 13.0639C13.1375 12.3414 13.4225 11.6553 13.8404 11.051C14.2583 10.4467 14.7995 9.93789 15.4285 9.55806C16.0574 9.17823 16.7597 8.93605 17.489 8.84749C18.2184 8.75893 18.9582 8.826 19.6598 9.04427C20.3613 9.26255 21.0086 9.62707 21.559 10.1138C22.1093 10.6005 22.5502 11.1984 22.8526 11.868C23.155 12.5376 23.312 13.2637 23.3133 13.9984C23.3118 14.4175 23.2618 14.835 23.1644 15.2426C23.1622 15.2553 23.1622 15.2683 23.1644 15.281C23.061 16.023 22.8607 16.7481 22.5687 17.438C21.9394 18.735 19.158 23.289 18.1059 25.0088C17.0539 23.289 14.2725 18.735 13.6624 17.438Z" fill="#385E83" stroke="#385E83" stroke-miterlimit="10"/>
<path d="M18.1059 10.5204C17.4532 10.5204 16.8151 10.714 16.2724 11.0766C15.7297 11.4392 15.3067 11.9547 15.0569 12.5577C14.8071 13.1607 14.7417 13.8243 14.8691 14.4645C14.9964 15.1047 15.3107 15.6927 15.7723 16.1543C16.2338 16.6158 16.8219 16.9301 17.4621 17.0575C18.1022 17.1848 18.7658 17.1195 19.3689 16.8697C19.9719 16.6199 20.4873 16.1969 20.85 15.6542C21.2126 15.1115 21.4061 14.4734 21.4061 13.8207C21.4049 12.9458 21.0568 12.1071 20.4381 11.4884C19.8195 10.8698 18.9808 10.5217 18.1059 10.5204ZM15.7568 13.8207C15.7568 13.3561 15.8946 12.9019 16.1527 12.5156C16.4108 12.1293 16.7777 11.8282 17.207 11.6504C17.6362 11.4726 18.1085 11.4261 18.5642 11.5167C19.0199 11.6074 19.4384 11.8311 19.767 12.1596C20.0955 12.4881 20.3192 12.9067 20.4098 13.3624C20.5005 13.8181 20.454 14.2904 20.2762 14.7196C20.0984 15.1488 19.7973 15.5157 19.411 15.7738C19.0247 16.032 18.5705 16.1697 18.1059 16.1697C17.4833 16.1685 16.8865 15.9206 16.4463 15.4803C16.006 15.04 15.7581 14.4433 15.7568 13.8207Z" fill="#385E83" stroke="#385E83" stroke-miterlimit="10"/>
</svg>
