<svg width="36" height="36" viewBox="0 0 36 36" fill="none" xmlns="http://www.w3.org/2000/svg">
<path d="M18 0C14.4399 0 10.9598 1.05568 7.99974 3.03355C5.03966 5.01141 2.73255 7.82263 1.37018 11.1117C0.00779909 14.4008 -0.348661 18.02 0.345873 21.5116C1.04041 25.0033 2.75474 28.2106 5.27208 30.7279C7.78943 33.2453 10.9967 34.9596 14.4884 35.6541C17.98 36.3487 21.5992 35.9922 24.8883 34.6298C28.1774 33.2674 30.9886 30.9603 32.9665 28.0003C34.9443 25.0402 36 21.5601 36 18C35.9949 13.2277 34.0969 8.65225 30.7223 5.27769C27.3478 1.90314 22.7723 0.00508643 18 0ZM18 33.6893C14.8969 33.6893 11.8636 32.7692 9.28347 31.0452C6.70337 29.3212 4.69243 26.8709 3.50494 24.004C2.31745 21.1372 2.00675 17.9826 2.61212 14.9392C3.2175 11.8957 4.71177 9.10015 6.90596 6.90595C9.10015 4.71176 11.8957 3.21749 14.9392 2.61211C17.9826 2.00674 21.1372 2.31744 24.0041 3.50493C26.8709 4.69242 29.3213 6.70336 31.0452 9.28346C32.7692 11.8636 33.6894 14.8969 33.6894 18C33.6843 22.1595 32.0297 26.1472 29.0884 29.0884C26.1472 32.0296 22.1595 33.6843 18 33.6893Z" fill="#385E83"/>
<path d="M27.08 11.2074H8.87348C8.72132 11.2048 8.57019 11.2327 8.42893 11.2893C8.28767 11.3459 8.15914 11.4301 8.05086 11.5371C7.94259 11.644 7.85675 11.7715 7.79838 11.912C7.74001 12.0525 7.71029 12.2033 7.71095 12.3555V23.6397C7.7103 23.7921 7.74 23.9431 7.79831 24.0839C7.85662 24.2247 7.94238 24.3525 8.05059 24.4598C8.1588 24.5671 8.28729 24.6518 8.42857 24.709C8.56985 24.7661 8.72109 24.7946 8.87348 24.7926H27.1281C27.2805 24.7946 27.4317 24.7661 27.573 24.709C27.7143 24.6518 27.8428 24.5671 27.951 24.4598C28.0592 24.3525 28.1449 24.2247 28.2033 24.0839C28.2616 23.9431 28.2913 23.7921 28.2906 23.6397V12.3555C28.2781 12.0441 28.1446 11.75 27.9185 11.5355C27.6925 11.3211 27.3916 11.2034 27.08 11.2074ZM8.56603 12.6485L14.076 17.8463L8.56603 23.3035V12.6485ZM19.3459 19.0857C18.9726 19.429 18.4839 19.6196 17.9768 19.6196C17.4696 19.6196 16.9809 19.429 16.6077 19.0857L9.18093 12.0529H26.7726L19.3459 19.0857ZM14.6909 18.442L15.9928 19.6958C16.5227 20.2017 17.2272 20.4841 17.9599 20.4841C18.6926 20.4841 19.3972 20.2017 19.9271 19.6958L21.229 18.442L26.7726 23.9135H9.18093L14.6909 18.442ZM21.8967 17.8655L27.3779 12.6293V23.3035L21.8967 17.8655Z" fill="#385E83" stroke="#385E83" stroke-miterlimit="10"/>
</svg>
