<svg width="36" height="37" viewBox="0 0 36 37" fill="none" xmlns="http://www.w3.org/2000/svg">
<path d="M18 0.991028C14.4399 0.991028 10.9598 2.04671 7.99974 4.02457C5.03966 6.00244 2.73255 8.81365 1.37018 12.1027C0.00779909 15.3918 -0.348661 19.011 0.345873 22.5026C1.04041 25.9943 2.75474 29.2016 5.27208 31.7189C7.78943 34.2363 10.9967 35.9506 14.4884 36.6452C17.98 37.3397 21.5992 36.9832 24.8883 35.6209C28.1774 34.2585 30.9886 31.9514 32.9665 28.9913C34.9443 26.0312 36 22.5511 36 18.991C35.9949 14.2187 34.0969 9.64327 30.7223 6.26872C27.3478 2.89417 22.7723 0.996114 18 0.991028ZM18 34.6804C14.8969 34.6804 11.8636 33.7602 9.28347 32.0362C6.70337 30.3123 4.69243 27.8619 3.50494 24.9951C2.31745 22.1282 2.00675 18.9736 2.61212 15.9302C3.2175 12.8867 4.71177 10.0912 6.90596 7.89698C9.10015 5.70278 11.8957 4.20852 14.9392 3.60314C17.9826 2.99777 21.1372 3.30847 24.0041 4.49596C26.8709 5.68345 29.3213 7.69439 31.0452 10.2745C32.7692 12.8546 33.6894 15.888 33.6894 18.991C33.6843 23.1505 32.0297 27.1382 29.0884 30.0795C26.1472 33.0207 22.1595 34.6753 18 34.6804Z" fill="#385E83"/>
<path d="M25.0181 10.4834C24.3926 10.5029 23.7752 10.6297 23.1926 10.8581C22.0973 11.2472 9.38155 16.6516 7.93079 17.2665C7.10453 17.6171 5.5625 18.2753 5.5625 19.8365C5.5625 20.8693 6.16778 21.6091 7.36394 22.0367C8.00285 22.2673 9.53047 22.7284 10.4144 22.9734C10.7999 23.0762 11.1972 23.1279 11.5961 23.1271C12.3783 23.133 13.1495 22.9431 13.8395 22.5747C13.8299 22.7058 13.8299 22.8375 13.8395 22.9686C13.9015 23.3875 14.055 23.7877 14.2891 24.1405C14.5233 24.4934 14.8323 24.7904 15.1942 25.0102C15.6746 25.3129 19.6618 27.979 20.2526 28.4018C21.0222 28.9833 21.9545 29.3092 22.9188 29.3337C24.6578 29.3337 25.239 27.5419 25.5177 26.6772C25.926 25.4282 27.4392 15.2584 27.6217 13.4666C27.71 12.9282 27.625 12.3757 27.3789 11.8887C27.1329 11.4018 26.7385 11.0056 26.2526 10.7572C25.8666 10.5764 25.4443 10.486 25.0181 10.493V10.4834ZM25.0181 12.0351C25.2113 12.0294 25.4034 12.0671 25.5801 12.1456C25.7742 12.2623 25.9256 12.4383 26.0121 12.6476C26.0986 12.8569 26.1155 13.0884 26.0605 13.3081C25.8731 15.2633 24.3503 25.1928 24.0285 26.192C23.7498 27.0423 23.4568 27.7725 22.8996 27.7725C22.2607 27.7557 21.6435 27.5371 21.1366 27.148C20.5361 26.7204 16.5537 24.0543 16.0012 23.7036C15.8414 23.6238 15.7031 23.5068 15.598 23.3624C15.4929 23.218 15.424 23.0505 15.3971 22.8739C15.3703 22.6973 15.3863 22.5169 15.4438 22.3477C15.5012 22.1786 15.5985 22.0258 15.7274 21.9022C16.3327 21.2969 20.8531 16.9158 21.2374 16.5315C21.5257 16.2432 21.3912 15.8974 21.1077 15.8974C20.9843 15.9032 20.8668 15.9526 20.7763 16.0367C20.2959 16.421 13.7338 20.8405 13.1622 21.172C12.6853 21.4432 12.1447 21.5825 11.5961 21.5755C11.3365 21.5778 11.0778 21.5438 10.8275 21.4746C9.95321 21.2344 8.47363 20.7877 7.88276 20.5763C7.29188 20.3649 7.11414 20.1824 7.11414 19.8365C7.11414 19.3561 7.80589 19.0054 8.55529 18.6932C9.30469 18.3809 22.6738 12.6932 23.7162 12.3137C24.1321 12.1513 24.572 12.0588 25.0181 12.0399V12.0351Z" fill="#385E83"/>
</svg>
