<svg width="36" height="36" viewBox="0 0 36 36" fill="none" xmlns="http://www.w3.org/2000/svg">
<path d="M21.486 19.148C21.3041 19.0027 21.0914 18.9008 20.8641 18.8501C20.6369 18.7993 20.4011 18.801 20.1746 18.855C19.8383 18.9943 19.6173 19.5275 19.4012 19.8157C19.3539 19.8799 19.2849 19.9245 19.2071 19.9413C19.1292 19.9581 19.0479 19.9459 18.9784 19.907C17.7355 19.4198 16.693 18.5279 16.0193 17.3754C15.9684 17.3028 15.9453 17.2144 15.9541 17.1263C15.9629 17.0381 16.0031 16.956 16.0673 16.895C16.3173 16.6562 16.501 16.3566 16.6005 16.0255C16.6189 15.6655 16.5357 15.3076 16.3603 14.9927C16.2232 14.5448 15.9597 14.1461 15.6013 13.8445C15.416 13.7577 15.2092 13.7274 15.0068 13.7573C14.8043 13.7872 14.6151 13.876 14.4628 14.0127C14.2022 14.2382 13.9953 14.5192 13.8573 14.8351C13.7193 15.1509 13.6537 15.4937 13.6654 15.8381C13.6701 16.0322 13.6943 16.2253 13.7374 16.4146C13.86 16.8669 14.0477 17.299 14.2947 17.6972C14.4781 17.9879 14.6769 18.2685 14.8904 18.5379C15.5683 19.4719 16.4217 20.2649 17.4028 20.8726C17.8917 21.179 18.4138 21.4288 18.9592 21.6172C19.5311 21.8745 20.1614 21.974 20.7847 21.9054C21.1412 21.8481 21.4783 21.7043 21.7664 21.4865C22.0544 21.2688 22.2848 20.9838 22.4372 20.6564C22.5269 20.4595 22.5538 20.2398 22.5141 20.0271C22.4228 19.614 21.8367 19.3594 21.486 19.148Z" fill="#385E83"/>
<path d="M18.0889 8.73824C16.4983 8.73514 14.9345 9.14775 13.5526 9.93519C12.1706 10.7226 11.0183 11.8575 10.2101 13.2275C9.40182 14.5974 8.96559 16.1547 8.94461 17.7452C8.92364 19.3356 9.31865 20.9039 10.0905 22.2947L8.76465 27.2426L13.7414 25.9072C14.9642 26.5637 16.3206 26.9326 17.7074 26.9861C19.0942 27.0395 20.475 26.776 21.7447 26.2155C23.0143 25.6551 24.1395 24.8124 25.0345 23.7517C25.9295 22.6911 26.5709 21.4402 26.9098 20.0944C27.2487 18.7485 27.2762 17.3431 26.9903 15.985C26.7043 14.627 26.1125 13.352 25.2597 12.257C24.4069 11.1621 23.3156 10.2761 22.0689 9.66632C20.8221 9.05657 19.4527 8.73916 18.0649 8.73824H18.0889ZM18.0889 25.2875C16.7558 25.2861 15.4478 24.9242 14.3035 24.2402L13.9912 24.0529L11.2146 24.7975L11.9544 22.0353L11.7622 21.7182C10.9148 20.3183 10.5552 18.677 10.7395 17.051C10.9238 15.425 11.6416 13.9059 12.7809 12.7312C13.9201 11.5564 15.4165 10.7923 17.0361 10.5582C18.6557 10.3241 20.3072 10.6332 21.7325 11.4373C23.1577 12.2414 24.2764 13.4951 24.9136 15.0023C25.5508 16.5096 25.6705 18.1855 25.2542 19.7681C24.8379 21.3507 23.9089 22.7507 22.6125 23.7493C21.3161 24.7479 19.7253 25.2888 18.0889 25.2875Z" fill="#385E83"/>
<path d="M18 1.52588e-05C14.4399 1.52588e-05 10.9598 1.0557 7.99974 3.03356C5.03966 5.01143 2.73255 7.82264 1.37018 11.1117C0.00779909 14.4008 -0.348661 18.02 0.345873 21.5116C1.04041 25.0033 2.75474 28.2106 5.27208 30.7279C7.78943 33.2453 10.9967 34.9596 14.4884 35.6541C17.98 36.3487 21.5992 35.9922 24.8883 34.6298C28.1774 33.2675 30.9886 30.9604 32.9665 28.0003C34.9443 25.0402 36 21.5601 36 18C35.9949 13.2277 34.0969 8.65226 30.7223 5.27771C27.3478 1.90316 22.7723 0.00510168 18 1.52588e-05ZM18 33.6894C14.8956 33.6903 11.8606 32.7705 9.27899 31.0464C6.69737 29.3223 4.68506 26.8712 3.49661 24.0033C2.30817 21.1354 1.99696 17.9794 2.60237 14.9346C3.20778 11.8898 4.7026 9.09292 6.89776 6.89777C9.09292 4.70261 11.8898 3.20779 14.9346 2.60238C17.9794 1.99697 21.1354 2.30817 24.0033 3.49662C26.8712 4.68507 29.3223 6.69737 31.0464 9.279C32.7705 11.8606 33.6903 14.8956 33.6894 18C33.6843 22.1595 32.0297 26.1472 29.0884 29.0884C26.1472 32.0297 22.1595 33.6843 18 33.6894Z" fill="#385E83"/>
</svg>
