<svg width="260" height="187" viewBox="0 0 260 187" fill="none" xmlns="http://www.w3.org/2000/svg">
<path d="M257.449 92.8734C270.64 139.81 233.266 152.272 131.354 168.932C63.2582 180.064 36.9764 162.28 15.9341 92.8734C-5.1083 23.467 16.3344 0 72.7797 0C149.881 0 231.068 16.9764 257.449 92.8734Z" fill="#FFE5EE"/>
<path d="M248.663 108.311C251.899 119.846 251.966 129.044 248.898 136.643C245.831 144.241 239.527 150.494 229.497 155.926C209.33 166.846 174.786 174.098 123.758 182.44C89.8016 187.991 66.6942 186.247 49.4728 174.842C32.2247 163.42 20.5188 142.072 10.0151 107.426C-0.490318 72.7753 -0.186083 50.1669 9.18904 36.235C18.525 22.3613 37.2859 16.4883 65.4252 16.4883C103.893 16.4883 143.239 20.7276 176.207 34.3499C209.113 47.9465 235.635 70.8705 248.663 108.311Z" stroke="#385E83" stroke-width="3"/>
</svg>
