<svg width="56" height="56" viewBox="0 0 56 56" fill="none" xmlns="http://www.w3.org/2000/svg">
<path d="M37.1254 20.1515C37.1254 20.4819 37.0274 20.8049 36.8438 21.0797C36.6603 21.3544 36.3994 21.5685 36.0941 21.695C35.7888 21.8214 35.4529 21.8545 35.1288 21.7901C34.8048 21.7256 34.5071 21.5665 34.2734 21.3328C34.0398 21.0992 33.8807 20.8015 33.8162 20.4774C33.7518 20.1534 33.7848 19.8175 33.9113 19.5122C34.0377 19.2069 34.2519 18.946 34.5266 18.7624C34.8013 18.5789 35.1243 18.4809 35.4548 18.4809C35.8978 18.4809 36.3228 18.6569 36.6361 18.9702C36.9494 19.2835 37.1254 19.7084 37.1254 20.1515ZM35.0167 27.6211C35.0167 29.006 34.606 30.3597 33.8367 31.5112C33.0673 32.6626 31.9737 33.5601 30.6943 34.09C29.4149 34.62 28.0071 34.7586 26.6488 34.4885C25.2906 34.2183 24.043 33.5514 23.0638 32.5722C22.0845 31.593 21.4177 30.3454 21.1475 28.9871C20.8774 27.6289 21.016 26.2211 21.546 24.9417C22.0759 23.6622 22.9734 22.5687 24.1248 21.7993C25.2763 21.03 26.63 20.6193 28.0148 20.6193C29.8712 20.6213 31.651 21.3596 32.9637 22.6723C34.2764 23.9849 35.0147 25.7647 35.0167 27.6211ZM32.4996 27.6211C32.4996 26.74 32.2383 25.8787 31.7488 25.1461C31.2592 24.4134 30.5635 23.8424 29.7494 23.5052C28.9354 23.168 28.0396 23.0798 27.1754 23.2517C26.3112 23.4236 25.5174 23.8479 24.8943 24.471C24.2713 25.094 23.847 25.8878 23.6751 26.752C23.5032 27.6162 23.5914 28.512 23.9286 29.326C24.2658 30.1401 24.8368 30.8359 25.5694 31.3254C26.3021 31.8149 27.1634 32.0762 28.0445 32.0762C28.6296 32.0762 29.2089 31.961 29.7494 31.7371C30.2899 31.5132 30.781 31.185 31.1947 30.7713C31.6084 30.3577 31.9366 29.8665 32.1605 29.326C32.3843 28.7855 32.4996 28.2062 32.4996 27.6211ZM42.1522 21.9929C42.1522 19.7283 41.2526 17.5564 39.6512 15.9551C38.0499 14.3537 35.878 13.4541 33.6133 13.4541H21.9931C19.7285 13.4541 17.5566 14.3537 15.9552 15.9551C14.3539 17.5564 13.4543 19.7283 13.4543 21.9929V33.6503C13.4543 34.7716 13.6751 35.882 14.1042 36.918C14.5334 37.954 15.1623 38.8953 15.9552 39.6882C17.5566 41.2895 19.7285 42.1891 21.9931 42.1891H33.6505C34.7718 42.1891 35.8822 41.9683 36.9181 41.5392C37.9541 41.1101 38.8954 40.4811 39.6883 39.6882C40.4812 38.8953 41.1102 37.954 41.5393 36.918C41.9684 35.882 42.1893 34.7716 42.1893 33.6503L42.1522 21.9929ZM39.3529 33.5167C39.3539 34.2872 39.2028 35.0505 38.9084 35.7626C38.614 36.4747 38.1819 37.1217 37.637 37.6666C37.0922 38.2115 36.4451 38.6435 35.733 38.938C35.0209 39.2324 34.2577 39.3834 33.4871 39.3825H22.1267C21.3562 39.3834 20.593 39.2324 19.8808 38.938C19.1687 38.6435 18.5217 38.2115 17.9768 37.6666C17.4319 37.1217 16.9999 36.4747 16.7055 35.7626C16.411 35.0505 16.26 34.2872 16.2609 33.5167V22.1266C16.26 21.356 16.411 20.5928 16.7055 19.8807C16.9999 19.1686 17.4319 18.5215 17.9768 17.9767C18.5217 17.4318 19.1687 16.9997 19.8808 16.7053C20.593 16.4109 21.3562 16.2598 22.1267 16.2608H33.5168C35.068 16.2667 36.5535 16.8875 37.6475 17.9871C38.7416 19.0868 39.3549 20.5754 39.3529 22.1266V33.5167Z" fill="#385E83"/>
<path d="M27.8218 0C22.3192 0 16.9401 1.63172 12.3648 4.68881C7.78957 7.74591 4.22358 12.0911 2.11782 17.1748C0.0120547 22.2586 -0.538909 27.8526 0.5346 33.2495C1.60811 38.6464 4.25788 43.6038 8.14882 47.4947C12.0398 51.3857 16.9971 54.0354 22.394 55.1089C27.7909 56.1825 33.3849 55.6315 38.4687 53.5257C43.5525 51.42 47.8976 47.854 50.9547 43.2787C54.0118 38.7034 55.6435 33.3244 55.6435 27.8218C55.6357 20.4454 52.7019 13.3734 47.4861 8.15749C42.2702 2.9416 35.1982 0.00786185 27.8218 0ZM27.8218 52.0721C23.0255 52.0721 18.337 50.6498 14.349 47.9852C10.3611 45.3205 7.25287 41.5331 5.41742 37.102C3.58197 32.6708 3.10173 27.7949 4.03744 23.0908C4.97314 18.3867 7.28276 14.0657 10.6742 10.6742C14.0657 7.28275 18.3867 4.97313 23.0908 4.03743C27.7949 3.10172 32.6708 3.58196 37.102 5.41741C41.5331 7.25285 45.3205 10.3611 47.9852 14.349C50.6498 18.337 52.0721 23.0255 52.0721 27.8218C52.0642 34.2509 49.5068 40.4145 44.9607 44.9606C40.4145 49.5068 34.2509 52.0642 27.8218 52.0721Z" fill="#385E83"/>
</svg>
