<svg width="57" height="56" viewBox="0 0 57 56" fill="none" xmlns="http://www.w3.org/2000/svg">
<path d="M28.4653 0C22.9627 0 17.5837 1.63172 13.0084 4.68881C8.43312 7.74591 4.86714 12.0911 2.76137 17.1748C0.655609 22.2586 0.104646 27.8526 1.17815 33.2495C2.25166 38.6464 4.90143 43.6038 8.79237 47.4947C12.6833 51.3857 17.6407 54.0354 23.0376 55.1089C28.4345 56.1825 34.0285 55.6315 39.1123 53.5257C44.196 51.42 48.5412 47.854 51.5983 43.2787C54.6554 38.7034 56.2871 33.3244 56.2871 27.8218C56.2792 20.4454 53.3455 13.3734 48.1296 8.15749C42.9137 2.9416 35.8417 0.00786185 28.4653 0ZM28.4653 52.0721C23.6691 52.0721 18.9805 50.6498 14.9926 47.9852C11.0046 45.3205 7.89642 41.5331 6.06097 37.102C4.22553 32.6708 3.74529 27.7949 4.68099 23.0908C5.6167 18.3867 7.92631 14.0657 11.3178 10.6742C14.7092 7.28275 19.0302 4.97313 23.7343 4.03743C28.4384 3.10172 33.3144 3.58196 37.7455 5.41741C42.1767 7.25285 45.9641 10.3611 48.6287 14.349C51.2934 18.337 52.7156 23.0255 52.7156 27.8218C52.7078 34.2509 50.1503 40.4145 45.6042 44.9606C41.0581 49.5068 34.8945 52.0642 28.4653 52.0721Z" fill="#385E83"/>
<path d="M42.5061 17.3228H14.3651C14.1299 17.3188 13.8963 17.3618 13.6779 17.4493C13.4596 17.5368 13.2609 17.6671 13.0936 17.8323C12.9262 17.9976 12.7936 18.1946 12.7033 18.4119C12.6131 18.6291 12.5672 18.8621 12.5682 19.0974V36.5389C12.5672 36.7744 12.6131 37.0078 12.7032 37.2254C12.7934 37.4431 12.9259 37.6406 13.0932 37.8065C13.2604 37.9723 13.459 38.1032 13.6774 38.1916C13.8958 38.2799 14.1295 38.3238 14.3651 38.3209H42.5804C42.8159 38.3238 43.0497 38.2799 43.268 38.1916C43.4864 38.1032 43.685 37.9723 43.8523 37.8065C44.0195 37.6406 44.1521 37.4431 44.2422 37.2254C44.3323 37.0078 44.3782 36.7744 44.3772 36.5389V19.0974C44.3579 18.6161 44.1516 18.1614 43.8021 17.83C43.4527 17.4986 42.9877 17.3166 42.5061 17.3228ZM13.8899 19.5503L22.4064 27.5842L13.8899 36.0191V19.5503ZM30.5517 29.4999C29.9748 30.0306 29.2195 30.3251 28.4356 30.3251C27.6517 30.3251 26.8964 30.0306 26.3194 29.4999L14.8403 18.6296H42.0309L30.5517 29.4999ZM23.3568 28.5049L25.369 30.4429C26.1881 31.2249 27.2771 31.6613 28.4096 31.6613C29.5421 31.6613 30.6311 31.2249 31.4502 30.4429L33.4624 28.5049L42.0309 36.9621H14.8403L23.3568 28.5049ZM34.4944 27.6139L42.9665 19.5206V36.0191L34.4944 27.6139Z" fill="#385E83" stroke="#385E83" stroke-miterlimit="10"/>
</svg>
