<svg width="127" height="165" viewBox="0 0 127 165" fill="none" xmlns="http://www.w3.org/2000/svg">
<path d="M118.604 102.735C131 164.999 50.3937 164.999 11.4727 164.999C-27.4483 164.999 -59 139.569 -59 94.7249C-59 49.8805 -27.4483 13.527 11.4727 13.527C135.744 -1.766 101.202 15.327 118.604 102.735Z" fill="#FFE5EE"/>
<path d="M85.6316 144.323C74.6683 146.951 64.8596 149.302 56.2477 150.142C47.6402 150.983 40.4486 150.287 34.6349 147.018C28.8596 143.77 24.1973 137.84 20.9416 127.675C17.6774 117.484 15.8693 103.156 15.7469 83.329C15.6123 61.5189 16.665 45.8675 18.6669 34.5989C20.6717 23.3142 23.6037 16.5747 27.1087 12.4443C30.5638 8.37269 34.7059 6.6849 39.5461 5.80117C41.9904 5.3549 44.5816 5.11924 47.3573 4.88126C47.5178 4.8675 47.679 4.85373 47.8407 4.83991C50.4539 4.61659 53.2158 4.38056 56.0548 3.95045C80.9674 0.176187 96.3307 1.52484 106.099 9.6615C115.897 17.8237 120.541 33.1979 122.793 58.9683C124.531 78.8531 125.33 93.6 124.982 104.688C124.634 115.797 123.135 123.056 120.413 128.081C117.735 133.022 113.788 135.955 108.126 138.22C103.315 140.145 97.3967 141.541 90.0822 143.267C88.6527 143.604 87.1699 143.954 85.6316 144.323Z" stroke="#385E83" stroke-width="3"/>
</svg>
