<svg width="57" height="56" viewBox="0 0 57 56" fill="none" xmlns="http://www.w3.org/2000/svg">
<path d="M28.7506 0C23.2483 0 17.8696 1.63161 13.2947 4.68852C8.71968 7.74542 5.15392 12.0903 3.04829 17.1737C0.942657 22.2572 0.391728 27.8509 1.46517 33.2474C2.53861 38.644 5.18821 43.601 9.0789 47.4917C12.9696 51.3824 17.9267 54.032 23.3232 55.1054C28.7198 56.1789 34.3134 55.628 39.3969 53.5223C44.4803 51.4167 48.8252 47.8509 51.8821 43.276C54.939 38.701 56.5706 33.3223 56.5706 27.82C56.5628 20.4441 53.6292 13.3725 48.4136 8.15697C43.1981 2.94141 36.1265 0.00786135 28.7506 0ZM28.7506 52.0688C23.9547 52.0688 19.2664 50.6466 15.2787 47.9821C11.291 45.3176 8.18301 41.5305 6.34768 37.0996C4.51235 32.6687 4.03214 27.7931 4.96778 23.0893C5.90343 18.3855 8.2129 14.0648 11.6041 10.6735C14.9954 7.28228 19.3161 4.97281 24.0199 4.03717C28.7237 3.10152 33.5993 3.58173 38.0302 5.41706C42.4611 7.25239 46.2482 10.3604 48.9127 14.3481C51.5772 18.3358 52.9994 23.024 52.9994 27.82C52.9915 34.2488 50.4342 40.412 45.8884 44.9578C41.3426 49.5036 35.1794 52.0609 28.7506 52.0688Z" fill="#385E83"/>
<path d="M39.598 14.6711C38.6313 14.7013 37.677 14.8972 36.7766 15.2503C35.0838 15.8517 15.4309 24.2043 13.1887 25.1547C11.9116 25.6967 9.52832 26.7139 9.52832 29.1269C9.52832 30.7231 10.4638 31.8665 12.3125 32.5273C13.3 32.8837 15.661 33.5965 17.0272 33.9751C17.623 34.134 18.237 34.2139 18.8536 34.2127C20.0625 34.2218 21.2545 33.9283 22.3209 33.3589C22.3061 33.5615 22.3061 33.765 22.3209 33.9677C22.4167 34.6152 22.6539 35.2336 23.0158 35.779C23.3777 36.3244 23.8553 36.7833 24.4147 37.1232C25.1571 37.5909 31.3195 41.7116 32.2328 42.3649C33.4221 43.2637 34.8631 43.7674 36.3534 43.8053C39.0411 43.8053 39.9395 41.0359 40.3701 39.6995C41.0012 37.7691 43.34 22.0512 43.6221 19.2818C43.7585 18.4497 43.6271 17.5957 43.2468 16.8431C42.8665 16.0905 42.257 15.4781 41.5061 15.0943C40.9094 14.8148 40.2568 14.6751 39.598 14.686V14.6711ZM39.598 17.0693C39.8967 17.0605 40.1935 17.1189 40.4667 17.2401C40.7666 17.4205 41.0006 17.6925 41.1343 18.0159C41.268 18.3394 41.2942 18.6973 41.2091 19.0368C40.9196 22.0586 38.566 37.4053 38.0685 38.9496C37.6379 40.2638 37.185 41.3923 36.3237 41.3923C35.3363 41.3663 34.3825 41.0285 33.5989 40.4271C32.6708 39.7663 26.5158 35.6457 25.662 35.1037C25.415 34.9804 25.2012 34.7995 25.0387 34.5764C24.8762 34.3532 24.7698 34.0942 24.7283 33.8213C24.6868 33.5484 24.7115 33.2695 24.8004 33.0081C24.8892 32.7467 25.0396 32.5105 25.2388 32.3194C26.1743 31.3839 33.1608 24.6127 33.7548 24.0187C34.2003 23.5732 33.9924 23.0387 33.5543 23.0387C33.3635 23.0477 33.182 23.124 33.042 23.254C32.2996 23.848 22.1576 30.6786 21.274 31.1909C20.5369 31.61 19.7015 31.8253 18.8536 31.8146C18.4523 31.8181 18.0525 31.7656 17.6657 31.6586C16.3144 31.2874 14.0276 30.5969 13.1144 30.2702C12.2012 29.9436 11.9265 29.6614 11.9265 29.1269C11.9265 28.3844 12.9956 27.8424 14.1538 27.3598C15.3121 26.8772 35.9748 18.0865 37.5859 17.4999C38.2287 17.2489 38.9085 17.1059 39.598 17.0767V17.0693Z" fill="#385E83"/>
</svg>
