<svg width="56" height="56" viewBox="0 0 56 56" fill="none" xmlns="http://www.w3.org/2000/svg">
<path d="M33.4995 29.5961C33.2182 29.3715 32.8895 29.214 32.5382 29.1356C32.187 29.0571 31.8225 29.0597 31.4724 29.1431C30.9527 29.3585 30.6111 30.1826 30.277 30.6282C30.204 30.7273 30.0973 30.7963 29.977 30.8223C29.8566 30.8483 29.731 30.8294 29.6236 30.7692C27.7024 30.0162 26.0911 28.6377 25.0497 26.8562C24.9711 26.7441 24.9354 26.6074 24.949 26.4712C24.9626 26.3349 25.0247 26.2081 25.124 26.1137C25.5103 25.7446 25.7943 25.2815 25.9482 24.7698C25.9766 24.2133 25.8479 23.6602 25.5769 23.1734C25.365 22.4812 24.9576 21.8649 24.4037 21.3988C24.1173 21.2646 23.7977 21.2177 23.4848 21.2639C23.1718 21.3101 22.8794 21.4474 22.644 21.6587C22.2411 22.0073 21.9213 22.4416 21.708 22.9298C21.4948 23.418 21.3934 23.9477 21.4114 24.4802C21.4188 24.7802 21.4561 25.0787 21.5228 25.3712C21.7123 26.0703 22.0024 26.7381 22.3841 27.3537C22.6676 27.803 22.9749 28.2367 23.3048 28.6531C24.3527 30.0967 25.6717 31.3224 27.1881 32.2617C27.9438 32.7353 28.7509 33.1214 29.5939 33.4126C30.4777 33.8103 31.452 33.9641 32.4154 33.8581C32.9665 33.7695 33.4875 33.5472 33.9327 33.2106C34.378 32.8741 34.734 32.4335 34.9696 31.9275C35.1083 31.6232 35.1498 31.2836 35.0884 30.9549C34.9473 30.3163 34.0415 29.9228 33.4995 29.5961Z" fill="#385E83"/>
<path d="M28.2425 13.5064C25.784 13.5016 23.367 14.1393 21.2309 15.3564C19.0948 16.5735 17.3139 18.3277 16.0646 20.4451C14.8153 22.5626 14.141 24.9697 14.1086 27.428C14.0762 29.8862 14.6867 32.3103 15.8798 34.4599L13.8304 42.1078L21.5228 40.0436C23.4128 41.0583 25.5093 41.6286 27.6529 41.7112C29.7964 41.7938 31.9306 41.3865 33.8931 40.5202C35.8555 39.6539 37.5946 38.3515 38.978 36.7121C40.3614 35.0726 41.3527 33.1392 41.8765 31.059C42.4004 28.9788 42.4429 26.8066 42.001 24.7074C41.559 22.6083 40.6442 20.6376 39.326 18.9452C38.0079 17.2528 36.3212 15.8833 34.3941 14.9409C32.4671 13.9984 30.3505 13.5078 28.2054 13.5064H28.2425ZM28.2425 39.0858C26.1819 39.0836 24.1603 38.5243 22.3916 37.4671L21.9089 37.1775L17.6172 38.3284L18.7607 34.059L18.4637 33.5689C17.1539 31.4051 16.598 28.8683 16.8828 26.3551C17.1677 23.8418 18.2773 21.4938 20.0382 19.678C21.799 17.8623 24.1119 16.6812 26.6153 16.3194C29.1186 15.9575 31.6713 16.4354 33.8742 17.6782C36.0772 18.921 37.8062 20.8588 38.7911 23.1885C39.776 25.5182 39.9611 28.1086 39.3176 30.5548C38.6741 33.0009 37.2382 35.1648 35.2344 36.7083C33.2306 38.2518 30.7719 39.0879 28.2425 39.0858Z" fill="#385E83"/>
<path d="M28.1089 0C22.6062 0 17.2272 1.63172 12.6519 4.68881C8.07665 7.74591 4.51066 12.0911 2.4049 17.1748C0.299134 22.2586 -0.25183 27.8526 0.821679 33.2495C1.89519 38.6464 4.54495 43.6038 8.4359 47.4947C12.3268 51.3857 17.2842 54.0354 22.6811 55.1089C28.078 56.1825 33.672 55.6315 38.7558 53.5257C43.8395 51.42 48.1847 47.854 51.2418 43.2787C54.2989 38.7034 55.9306 33.3244 55.9306 27.8218C55.9228 20.4454 52.989 13.3734 47.7731 8.15749C42.5572 2.9416 35.4852 0.00786185 28.1089 0ZM28.1089 52.0721C23.3105 52.0735 18.6195 50.6519 14.6292 47.987C10.6389 45.3221 7.52856 41.5336 5.69163 37.1008C3.8547 32.668 3.37369 27.7899 4.30945 23.0837C5.2452 18.3775 7.55568 14.0545 10.9486 10.6615C14.3416 7.26859 18.6646 4.95811 23.3708 4.02236C28.077 3.0866 32.9551 3.56761 37.3879 5.40454C41.8207 7.24147 45.6092 10.3518 48.2741 14.3421C50.939 18.3324 52.3606 23.0234 52.3592 27.8218C52.3513 34.2509 49.7938 40.4145 45.2477 44.9606C40.7016 49.5068 34.538 52.0642 28.1089 52.0721Z" fill="#385E83"/>
</svg>
